
  <svg width="160.5" height="48" viewBox="0 0 856 256" fill="none" xmlns="http://www.w3.org/2000/svg" xmlns:xlink="http://www.w3.org/1999/xlink" version="1.1">
    
        <g transform="translate(0, 0)">
          <svg width="256" height="256" viewBox="0 0 256 256" fill="none" xmlns="http://www.w3.org/2000/svg">
<rect width="256" height="256" rx="60" fill="#242938"/>
<path d="M107.028 48.8181H60.7888C51.5798 48.8181 44.0108 56.6801 44.0108 66.4151C43.6818 75.8111 50.9178 83.6701 59.9698 84.0111H107.522L107.028 48.8181Z" fill="#073042"/>
<path d="M211.835 205.303H60.7887C51.4147 205.303 44.0107 197.445 44.0107 187.707V66.2461C44.0107 75.9821 51.5797 83.8411 60.7887 84.0111H187.321C187.321 84.0111 212 81.7931 212 101.097V205.303H211.835Z" fill="#4285F4"/>
<path d="M141.413 143.12C148.159 137.825 149.475 127.917 144.379 121.082C141.579 117.324 137.301 114.933 132.692 114.761H133.186C134.011 114.591 134.997 114.591 135.823 114.761V105.024C135.823 103.828 135.327 102.803 134.34 102.292C132.858 101.437 131.049 101.95 130.227 103.487C129.897 104 129.733 104.512 129.897 105.195V115.102C121.671 116.469 115.912 124.499 117.225 133.213V133.383C117.886 137.483 120.027 141.242 123.316 143.633L95.5088 205.474H113.609L126.441 177.116C127.925 173.698 131.872 172.162 135.327 173.87C136.646 174.554 137.795 175.749 138.453 177.116L151.783 205.474H170.209L141.413 143.12ZM132.036 140.387C126.77 140.387 122.657 135.945 122.657 130.48C122.657 125.011 126.935 120.741 132.199 120.911C134.667 120.911 136.81 121.937 138.617 123.647C142.401 127.403 142.401 133.554 138.781 137.483C137.137 139.192 134.667 140.387 132.036 140.387Z" fill="#3870B2"/>
<path d="M96.9917 57.363H161.818V69.662H96.9917V57.363Z" fill="white"/>
<path d="M127.1 120.741C132.199 120.741 136.48 125.183 136.316 130.649C136.316 135.945 132.036 140.387 126.77 140.216C121.671 140.216 117.556 135.775 117.556 130.48C117.556 127.917 118.542 125.524 120.357 123.647C122.164 121.766 124.63 120.741 127.1 120.741ZM130.72 115.102V104.853C130.72 103.657 130.227 102.633 129.24 102.119C127.76 101.265 125.949 101.778 125.123 103.316C124.793 103.828 124.63 104.341 124.793 105.024V114.933C116.567 116.298 110.808 124.33 112.129 133.042V133.213C112.788 137.31 114.924 141.07 118.215 143.46L83.1688 221.532C81.8538 224.268 82.0178 227.682 83.8278 230.245C86.4568 234.173 91.5618 235.198 95.3418 232.466C96.6628 231.611 97.6488 230.245 98.3058 228.878L121.671 176.944C123.151 173.528 127.1 171.99 130.556 173.698C131.872 174.382 133.022 175.579 133.681 176.944L157.539 228.366C159.516 232.636 164.449 234.344 168.566 232.293C172.676 230.245 174.323 225.119 172.347 220.848L136.316 143.12C142.896 137.652 144.049 127.575 138.781 120.741C136.81 118.007 134.011 116.128 130.72 115.102Z" fill="#073042"/>
<path d="M152.276 68.296C149.805 68.296 147.831 66.415 147.831 63.854C147.831 62.658 148.323 61.292 149.146 60.437C150.957 58.73 153.591 58.73 155.401 60.437C156.222 61.292 156.716 62.487 156.716 63.683C156.552 66.246 154.742 68.125 152.276 68.296ZM103.572 68.125C101.1 68.125 99.1288 66.075 99.1288 63.683C99.1288 62.487 99.6238 61.292 100.443 60.437C101.925 58.559 104.726 58.216 106.533 59.756H106.698C108.506 61.463 108.67 64.366 107.028 66.246L106.533 66.927C105.712 67.782 104.562 68.296 103.406 68.296L103.572 68.125ZM153.591 40.62L162.311 24.904C162.804 24.05 162.475 23.025 161.818 22.342C160.995 22 160.174 22.171 159.681 22.855L150.629 39.083C136.151 32.421 119.698 32.421 105.383 39.083L96.4978 23.025C96.1688 22.513 95.5088 22 94.8488 22C94.1918 22 93.5328 22.342 93.2018 23.025C92.8738 23.538 92.8738 24.391 93.2018 24.904L102.09 40.62C86.6208 49.33 76.5848 65.734 75.1078 83.841H180.737C179.424 65.564 169.221 49.33 153.755 40.62" fill="#3DDC84"/>
<path d="M197.37 117.839H190.459C190.128 118.007 189.8 118.349 189.8 118.861V232.466C189.8 232.977 190.128 233.319 190.625 233.319H197.863C206.254 233.319 213 226.143 213 217.603V101.95C213 110.662 206.254 117.667 197.863 117.667H197.37V117.839Z" fill="#073042"/>
</svg>

        </g>
         
        <g transform="translate(300, 0)">
          <svg xmlns="http://www.w3.org/2000/svg" width="256" height="256" fill="none" viewBox="0 0 256 256"><rect width="256" height="256" fill="#242938" rx="60"/><path fill="#2C2255" d="M83.0442 153.434H52.3774C56.4379 167.363 63.9727 179.848 75.0039 190.879C92.59 208.469 113.737 217.249 138.465 217.249C143.409 217.249 148.198 216.881 152.85 216.18C171.477 213.368 187.784 204.947 201.757 190.879C212.859 179.852 220.447 167.363 224.539 153.434H212.094H193.896H83.0442Z"/><path fill="#2C2255" d="M66.1338 111.782H50.1137C49.5276 115.302 49.1283 118.896 48.947 122.581H67.9873H77.5386H215.405H227.989C227.806 118.896 227.407 115.302 226.815 111.782"/><path fill="#2C2255" d="M48.947 132.609C49.1283 136.295 49.5258 139.889 50.1137 143.407H66.7694H79.3939H214.281H226.819C227.409 139.889 227.812 136.295 227.995 132.609"/><path fill="#2C2255" d="M224.542 101.753C220.454 87.7855 212.864 75.2434 201.756 64.1335C187.82 50.1994 171.559 41.8367 152.993 39.0236C148.297 38.3111 143.46 37.9375 138.465 37.9375C113.736 37.9375 92.5878 46.672 75.0035 64.1335C63.9687 75.2434 56.4302 87.7855 52.3716 101.753"/><path fill="#F7941E" d="M43.6227 127.597C43.6227 80.3004 79.1448 41.0018 125.355 34.0897C124.209 34.0476 123.057 34 121.899 34C70.0422 34 28 75.9067 28 127.597C28 179.29 70.0403 221.193 121.899 221.193C123.061 221.193 124.213 221.15 125.363 221.106C79.1448 214.194 43.6227 174.896 43.6227 127.597Z"/><path fill="url(#paint0_linear_159_844)" d="M199.398 122.579C199.097 118.878 198.475 115.268 197.544 111.781H79.3939C78.4635 115.264 77.8389 118.876 77.5386 122.579H199.398Z"/><path fill="url(#paint1_linear_159_844)" d="M199.398 132.609H77.5403C77.8406 136.31 78.4615 139.918 79.3938 143.407H197.546C198.476 139.92 199.097 136.31 199.398 132.609Z"/><path fill="url(#paint2_linear_159_844)" d="M138.469 188.748C163.006 188.748 184.156 174.291 193.896 153.434H83.0425C92.7824 174.291 113.933 188.748 138.469 188.748Z"/><path fill="#fff" d="M68.509 132.608H77.4541H199.626H215.676H227.868C227.952 131.013 228 129.407 228 127.788C228 126.039 227.936 124.306 227.837 122.577H215.674H199.625H77.4522H67.8753H48.9467C48.8478 124.302 48.7837 126.039 48.7837 127.788C48.7837 129.407 48.8313 131.013 48.9156 132.608H68.509Z"/><path fill="#fff" d="M82.685 101.753H52.3699C51.3736 105.018 50.7307 108.368 50.1135 111.784H65.7271H79.022H197.482H214.258H226.249C225.63 108.372 224.834 105.022 223.839 101.753"/><path fill="#fff" d="M214.733 143.405H197.956H79.4983H66.839H50.1118C50.7125 146.817 51.3957 150.165 52.3756 153.434H83.1576H194.297H212.542H224.425C225.403 150.168 226.193 146.82 226.795 143.405H214.733Z"/><defs><linearGradient id="paint0_linear_159_844" x1="138.467" x2="138.467" y1="229.42" y2="94.558" gradientUnits="userSpaceOnUse"><stop offset=".303" stop-color="#473788"/><stop offset=".872" stop-color="#2C2255"/></linearGradient><linearGradient id="paint1_linear_159_844" x1="138.468" x2="138.468" y1="229.422" y2="94.56" gradientUnits="userSpaceOnUse"><stop offset=".303" stop-color="#473788"/><stop offset=".872" stop-color="#2C2255"/></linearGradient><linearGradient id="paint2_linear_159_844" x1="138.469" x2="138.469" y1="229.417" y2="94.564" gradientUnits="userSpaceOnUse"><stop offset=".303" stop-color="#473788"/><stop offset=".863" stop-color="#2C2255"/></linearGradient></defs></svg>
        </g>
         
        <g transform="translate(600, 0)">
          <svg width="256" height="256" viewBox="0 0 256 256" fill="none" xmlns="http://www.w3.org/2000/svg">
<rect width="256" height="256" rx="60" fill="#242938"/>
<path fill-rule="evenodd" clip-rule="evenodd" d="M128.217 28C124.394 28 120.571 28.2931 116.977 28.5862C122.325 32.222 127.366 36.2879 132.053 40.7437L135.876 44.2992L132.053 48.1223C128.68 51.2594 125.522 54.6184 122.597 58.177V58.4701C122.072 59.0326 121.578 59.624 121.119 60.2415C123.477 59.9976 125.847 59.8997 128.217 59.9484C146.089 60.1931 163.146 67.4644 175.697 80.1891C188.25 92.9138 195.286 110.069 195.286 127.942C195.286 145.816 188.25 162.97 175.697 175.696C163.146 188.42 146.089 195.691 128.217 195.936C115.678 196.009 103.375 192.522 92.7386 185.881C87.6368 186.471 82.5055 186.769 77.3698 186.773C74.9996 186.824 72.6286 186.722 70.2715 186.467C70.5453 194.48 71.2386 202.473 72.3488 210.413C88.7999 221.666 108.285 227.649 128.217 227.566C141.321 227.566 154.296 224.985 166.402 219.97C178.509 214.956 189.509 207.606 198.774 198.34C208.04 189.074 215.39 178.074 220.404 165.968C225.419 153.862 228 140.886 228 127.783C228 114.679 225.419 101.704 220.404 89.5977C215.39 77.4915 208.04 66.4915 198.774 57.2258C189.509 47.96 178.509 40.6101 166.402 35.5955C154.296 30.581 141.321 28 128.217 28ZM74.1191 43.9627C80.9446 39.5324 88.2891 35.9586 95.9871 33.3217C93.4723 37.9293 91.1967 42.6635 89.1694 47.5055C84.2228 46.044 79.1982 44.8612 74.1191 43.9627ZM68.5092 80.2438C72.4996 79.9774 76.2913 79.7244 80.3256 79.7244C76.1448 83.7231 72.5611 88.3025 69.6846 93.3219C68.6107 89.0455 67.8189 84.7034 67.3143 80.3233L68.5092 80.2438ZM64.9568 180.54V181.126L64.0647 180.858C56.4582 180.216 48.9332 178.829 41.5976 176.717L41.0114 176.424L41.3045 175.825C43.5735 168.753 46.3372 161.85 49.5752 155.167L49.8811 154.568L50.4672 154.861C55.4405 157.701 60.5717 160.254 65.8361 162.507L66.4351 162.801V163.387C65.488 169.056 64.9937 174.792 64.9568 180.54ZM64.9565 186.438V185.851H64.3576C57.8892 185.178 51.4703 184.093 45.1401 182.602L43.3688 182.308L44.2608 183.787C50.0508 192.488 57.1277 200.262 65.2496 206.84L66.4348 208.025V205.948C65.5317 199.482 65.038 192.965 64.9565 186.438ZM121.118 44.8437C119.054 46.9209 116.976 49.2784 114.912 51.6488C114.657 51.9418 113.141 53.7132 111.356 56.0963C107.225 54.1327 102.99 52.4424 98.793 50.7671L98.0646 50.4764C100.399 44.753 103.164 39.2149 106.335 33.9096C111.452 37.2922 116.386 40.9419 121.118 44.8437ZM47.2177 108.706L47.5108 109.292L48.0971 109C52.7506 105.675 57.5881 102.616 62.5866 99.8368L63.1728 99.5434V98.9447C61.6406 93.2306 60.5541 87.4062 59.9231 81.5241V80.9251H59.3369C51.9832 82.2664 44.76 84.245 37.7492 86.8382L37.163 87.1313L37.4561 87.7303C39.7948 95.113 43.0758 102.163 47.2177 108.706ZM45.4458 118.751L46.032 118.165L46.3888 119.006C49.6031 123.521 53.0574 127.86 56.7367 132.004L57.0298 132.298L56.7367 132.896C53.4928 137.246 50.5139 141.786 47.8161 146.494L47.523 147.08L46.9368 146.787C41.168 142.989 35.6356 138.844 30.3701 134.375L29.7711 133.776L30.3701 133.24C35.0214 128.036 40.0612 123.192 45.4458 118.751ZM85.347 181.426H87.1183L85.6401 180.24C80.2795 175.914 75.6831 170.719 72.0426 164.872V164.578L70.8701 163.98V164.872C70.1661 170.068 69.7704 175.302 69.6849 180.546V181.132H70.2711C71.4563 181.132 72.6383 181.206 73.8203 181.279C75.0023 181.353 76.1842 181.426 77.3694 181.426H85.347ZM86.2388 56.3838C84.5482 61.1196 83.1648 65.9595 82.097 70.8734C76.9618 70.8568 71.83 71.1419 66.7282 71.7272C66.3885 65.2244 66.4864 58.7062 67.0213 52.2166C73.5168 53.1535 79.9385 54.546 86.2388 56.3838ZM91.5527 70.5573C95.9752 67.8824 100.628 65.6092 105.456 63.7649C102.013 62.0385 98.4531 60.5566 94.8024 59.3301C93.6299 62.8728 92.4448 66.7214 91.5527 70.5573ZM44.5669 151.617H45.1403L44.8599 152.79C42.1945 158.179 39.8249 163.71 37.7617 169.357L37.1755 170.835L36.5893 169.357C32.4989 160.568 29.8031 151.195 28.599 141.576L28.3059 139.791L29.7842 140.976C34.5161 144.787 39.4509 148.34 44.5669 151.617ZM57.8585 56.9694C51.9156 62.8914 46.7511 69.5462 42.4896 76.7731C47.4731 75.3059 52.7578 74.1399 58.0324 72.9763L58.1516 72.95C57.8585 67.6104 57.8585 62.2962 57.8585 56.9694ZM60.8149 125.256V127.027L59.9738 125.536C57.7314 123.072 55.665 120.262 53.6354 117.503C52.9893 116.625 52.3463 115.751 51.7032 114.895L50.8111 114.297L51.4101 114.003C55.0802 111.446 58.7502 109.172 62.4203 106.897L62.8794 106.612L64.3576 105.733L63.7714 107.517C62.0232 113.277 61.0295 119.24 60.8149 125.256ZM61.6945 137.382L61.4014 135.61L60.5221 137.089C57.8587 140.912 55.1953 145.066 52.8759 149.208L52.57 149.794L53.169 150.087C57.1838 152.392 61.4878 154.408 65.7998 156.427L66.1675 156.6L67.6458 157.186L67.0596 155.708C64.385 149.894 62.5774 143.72 61.6945 137.382ZM42.7827 113.085L42.1837 113.379C37.3555 116.984 32.9898 121.169 29.1852 125.842L28 127.027V125.256C28.2237 115.715 29.8159 106.256 32.7279 97.1686L33.3269 95.3971L33.9131 96.8752C36.4792 102.235 39.3425 107.446 42.4896 112.487L42.7827 113.085Z" fill="#43B049"/>
</svg>

        </g>
        
  </svg>
  